<svg xmlns="http://www.w3.org/2000/svg" viewBox="0 0 24 24"><rect width="24" height="24" rx="4" fill="#181717"/><path d="M8 15c-1.7.9-2-1-2-1 .4-1 1-1.4 1-1.4 1 .1 1.6 1 1.6 1 .9 1.6 2.5 1.1 3 .8.1-.7.4-1.1.7-1.4-2.6-.3-5.3-1.3-5.3-5.9 0-1.3.5-2.3 1.2-3.1-.1-.3-.5-1.4.1-2.9 0 0 1-.3 3.3 1.2a11.4 11.4 0 016 0c2.3-1.5 3.3-1.2 3.3-1.2.6 1.5.2 2.6.1 2.9.8.8 1.2 1.8 1.2 3.1 0 4.6-2.7 5.6-5.3 5.9.4.3.8 1 .8 2.1 0 1.5 0 2.7 0 3.1 0 .3.2.5.8.4A10 10 0 0024 12C24 5.4 18.6 0 12 0S0 5.4 0 12c0 2.2.6 4.3 1.7 6.1.6.2.8 0 .8-.5v-1.9c-2 .4-2.5-1-2.5-1-.5-1.1-1.2-1.4-1.2-1.4-.9-.6.1-.6.1-.6 1 .1 1.6 1 1.6 1 .9 1.6 2.5 1.1 3 .8.1-.7.4-1.1.7-1.4-2.6-.3-5.3-1.3-5.3-5.9 0-1.3.5-2.3 1.2-3.1-.1-.3-.5-1.4.1-2.9 0 0 1-.3 3.3 1.2a11.4 11.4 0 016 0c2.3-1.5 3.3-1.2 3.3-1.2.6 1.5.2 2.6.1 2.9.8.8 1.2 1.8 1.2 3.1 0 4.6-2.7 5.6-5.3 5.9.4.3.8 1 .8 2.1v3.1c0 .5.2.7.8.5A10 10 0 0024 12c0-6.6-5.4-12-12-12S0 5.4 0 12c0 2.2.6 4.3 1.7 6.1.6.2.8 0 .8-.5v-1.9" fill="#fff"/></svg>